<?xml version="1.0" encoding="UTF-8"?>
<svg width="17px" height="16px" viewBox="0 0 17 16" version="1.1" xmlns="http://www.w3.org/2000/svg" xmlns:xlink="http://www.w3.org/1999/xlink">
    <title>cj1</title>
    <g id="pc版" stroke="none" stroke-width="1" fill="none" fill-rule="evenodd">
        <g id="4JS-更换背景" transform="translate(-1260.000000, -1059.000000)" fill-rule="nonzero">
            <g id="left1" transform="translate(1236.000000, 852.000000)">
                <g id="1" transform="translate(24.000000, 198.000000)">
                    <g id="cj1" transform="translate(0.000000, 9.000000)">
                        <path d="M15.7746479,8.01770278 C16.0751174,7.72187262 16.0751174,7.27812739 15.7746479,6.98229722 L14.5727699,5.72501907 C14.4225352,5.577104 14.3474178,5.35523138 14.3474178,5.13335876 L14.5727699,3.43233536 C14.6478873,3.06254767 14.3474178,2.69275996 13.971831,2.61880244 L12.3192488,2.32297227 C12.0938967,2.24901473 11.8685446,2.1750572 11.7934272,1.95318459 L10.9671361,0.400076269 C10.741784,0.0302885804 10.2910798,-0.117626509 9.91549296,0.104246108 L8.33802817,0.843821502 C8.11267606,0.917779047 7.88732394,0.917779047 7.66197183,0.843821502 L6.1596244,0.104246108 C5.78403755,-0.117626509 5.33333333,0.030288563 5.10798122,0.400076269 L4.3568075,1.87922704 C4.20657277,2.10109966 4.05633801,2.24901473 3.75586854,2.32297227 L2.10328638,2.61880244 C1.65258215,2.69275998 1.42723004,3.06254767 1.42723004,3.43233536 L1.65258215,5.13335876 C1.65258215,5.35523138 1.57746477,5.577104 1.42723004,5.72501907 L0.225352117,6.98229722 C-0.0751173723,7.27812739 -0.0751173723,7.72187262 0.225352117,8.01770278 L1.42723004,9.27498094 C1.57746477,9.42289601 1.65258215,9.64476862 1.65258215,9.86664124 L1.42723004,11.5676646 C1.35211266,11.9374523 1.65258215,12.30724 2.02816902,12.3811976 L3.75586854,12.6770277 C3.98122065,12.7509853 4.20657277,12.8249428 4.28169014,13.0468154 L5.10798122,14.5999237 C5.33333333,14.9697114 5.78403755,15.1176265 6.1596244,14.8957539 L7.73708919,14.1561785 C7.9624413,14.082221 8.18779342,14.082221 8.41314553,14.1561785 L9.99061032,14.8957539 C10.3661972,15.043669 10.8169014,14.8957539 10.9671361,14.5999237 L11.7934272,13.0468154 C11.8685446,12.8249428 12.0938967,12.6770277 12.3192488,12.6770277 L14.0469483,12.3811976 C14.4225352,12.30724 14.7230047,11.9374523 14.6478873,11.5676646 L14.4225352,9.86664124 C14.4225352,9.64476862 14.4976526,9.42289601 14.6478873,9.27498094 L15.7746479,8.01770278 Z" id="路径" fill="#FF702E"></path>
                        <polygon id="路径" fill="#FFFFFF" points="4 7.93540798 4.8999161 7.10437924 7.22024031 8.91387731 11.5755099 5 12.285714 5.78411583 7.22024031 11.2142855"></polygon>
                    </g>
                </g>
            </g>
        </g>
    </g>
</svg>