<?xml version="1.0" encoding="UTF-8"?>
<svg width="13px" height="15px" viewBox="0 0 13 15" version="1.1" xmlns="http://www.w3.org/2000/svg" xmlns:xlink="http://www.w3.org/1999/xlink">
    <title>dianz</title>
    <g id="pc版" stroke="none" stroke-width="1" fill="none" fill-rule="evenodd">
        <g id="4JS-更换背景" transform="translate(-1147.000000, -754.000000)">
            <g id="cont" transform="translate(360.000000, 348.000000)">
                <g id="list1" transform="translate(24.000000, 203.000000)">
                    <g id="分组-7" transform="translate(0.000000, 202.000000)">
                        <g id="编组-5" transform="translate(524.000000, 0.000000)">
                            <g id="dianz" transform="translate(236.000000, 1.000000)">
                                <rect id="矩形" x="0" y="0" width="16" height="16"></rect>
                                <path d="M10,6 C12.5482787,0.291949312 9.93298899,0 10,0 C8.82454256,0 9.05432178,0.876126137 9,1 C8.97050003,3.81766672 6,6.00815594 6,6 L6,14 C6,14.7181819 7.06686026,15 7,15 L14,15 C14.0544725,15 14.5146108,13.5187624 15,14 C16,8.47010029 16,6.96795118 16,8 C16,5.92485777 14.9958785,6.00820231 15,6 L10,6 Z" id="路径" fill="#C9C9C9"></path>
                                <rect id="矩形" fill="#C9C9C9" x="3" y="6" width="2" height="9" rx="1"></rect>
                            </g>
                        </g>
                    </g>
                </g>
            </g>
        </g>
    </g>
</svg>