<?xml version="1.0" encoding="UTF-8"?>
<svg width="72px" height="27px" viewBox="0 0 72 27" version="1.1" xmlns="http://www.w3.org/2000/svg" xmlns:xlink="http://www.w3.org/1999/xlink">
    <title>logo</title>
    <g id="pc版" stroke="none" stroke-width="1" fill="none" fill-rule="evenodd">
        <g id="4JS-更换背景" transform="translate(-360.000000, -14.000000)" fill="#FF5100">
            <g id="logo" transform="translate(360.000000, 14.000000)">
                <path d="M26.6180256,10.6574574 C28.0872618,12.6668643 27.6389664,15.4792916 25.6167251,16.9392193 C24.6535274,17.634561 22.6798425,18.1135939 19.6956706,18.3763181 C21.6504092,19.8506434 22.0679688,22.6157336 20.6180256,24.5987544 C19.148755,26.6081364 16.3183292,27.0535811 14.2960679,25.5936809 C12.9479037,24.6204003 11.3936027,21.6453522 9.6331651,16.6685364 C12.3063751,16.7318512 14.4773866,16.9026685 16.1461995,17.1809884 C17.6969834,13.0456756 19.080339,10.5402023 20.2960679,9.66253087 C22.3183292,8.20263063 25.148755,8.64807537 26.6180256,10.6574574 Z M4.66666667,6 C6.38488589,6 9.495997,7.5 14,10.5 C12.0073816,11.8272316 10.2873899,12.8608726 8.8400249,13.6009229 C10.0844386,17.9849538 10.4700277,20.9001785 9.99694075,22.3469412 C9.22450393,24.7091245 6.67113989,26.0018555 4.29383544,25.2343428 C1.916536,24.4668147 0.615532043,21.9296874 1.38795658,19.5675 C1.75652431,18.4403908 3.07393475,16.8966217 5.3401879,14.9361928 C5.09681941,14.9786169 4.87181494,15 4.66666667,15 C2.08933783,15 5.5067062e-14,12.9852814 5.5067062e-14,10.5 C5.5067062e-14,8.01471863 2.08933783,6 4.66666667,6 Z M18.9969407,3.28777994 C19.5118925,4.86257083 19.0094705,8.1772202 17.4896747,13.2317281 C13.2701559,10.0301783 10.9029165,7.64200934 10.3879566,6.0672211 C9.61553204,3.70503376 10.916536,1.16790638 13.2938354,0.400378274 C15.6711399,-0.367134384 18.2245039,0.925596584 18.9969407,3.28777994 Z" id="形状结合"></path>
                <path d="M44,22 L44,21.2347826 C44,20.2406701 43.1941125,19.4347826 42.2,19.4347826 C41.2058875,19.4347826 40.4,18.6288952 40.4,17.6347826 L40.4,5 C40.4,3.8954305 39.5045695,3 38.4,3 L37,3 C35.8954305,3 35,3.8954305 35,5 L35,22 C35,23.1045695 35.8954305,24 37,24 L42,24 C43.1045695,24 44,23.1045695 44,22 Z M50,22 L50,5 C50,3.8954305 49.1045695,3 48,3 L46,3 C44.8954305,3 44,3.8954305 44,5 L44,22 C44,23.1045695 44.8954305,24 46,24 L48,24 C49.1045695,24 50,23.1045695 50,22 Z M58.4,22 L58.4,16.6695652 C58.4,15.6754527 59.2058875,14.8695652 60.2,14.8695652 C61.1941125,14.8695652 62,14.0636778 62,13.0695652 L62,13.0173913 C62,12.0232788 61.1941125,11.2173913 60.2,11.2173913 C59.2058875,11.2173913 58.4,10.4115039 58.4,9.4173913 L58.4,9.36521739 C58.4,8.37110484 59.2058875,7.56521739 60.2,7.56521739 C61.1941125,7.56521739 62,6.75932994 62,5.76521739 L62,5 C62,3.8954305 61.1045695,3 60,3 L55,3 C53.8954305,3 53,3.8954305 53,5 L53,22 C53,23.1045695 53.8954305,24 55,24 L56.4,24 C57.5045695,24 58.4,23.1045695 58.4,22 Z M72,22 L72,21.4347826 C72,20.3302131 71.1045695,19.4347826 70,19.4347826 L69.9090909,19.4347826 C68.8045214,19.4347826 67.9090909,18.5393521 67.9090909,17.4347826 L67.9090909,16.5059289 C67.9090909,15.6021902 68.6417159,14.8695652 69.5454545,14.8695652 C70.4491932,14.8695652 71.1818182,14.1369403 71.1818182,13.2332016 L71.1818182,12.8537549 C71.1818182,11.9500163 70.4491932,11.2173913 69.5454545,11.2173913 C68.6417159,11.2173913 67.9090909,10.4847663 67.9090909,9.58102767 L67.9090909,9.39130435 C67.9090909,8.38278437 68.7266579,7.56521739 69.7351779,7.56521739 L70,7.56521739 C71.1045695,7.56521739 72,6.66978689 72,5.56521739 L72,5 C72,3.8954305 71.1045695,3 70,3 L65,3 C63.8954305,3 63,3.8954305 63,5 L63,22 C63,23.1045695 63.8954305,24 65,24 L70,24 C71.1045695,24 72,23.1045695 72,22 Z" id="LIFE" fill-rule="nonzero"></path>
            </g>
        </g>
    </g>
</svg>