<?xml version="1.0" encoding="UTF-8"?>
<svg width="20px" height="20px" viewBox="0 0 20 20" version="1.1" xmlns="http://www.w3.org/2000/svg" xmlns:xlink="http://www.w3.org/1999/xlink">
    <title>nan</title>
    <g id="pc版" stroke="none" stroke-width="1" fill="none" fill-rule="evenodd">
        <g id="4JS-更换背景" transform="translate(-567.000000, -135.000000)">
            <g id="个人简介栏" transform="translate(360.000000, 71.000000)">
                <g id="编组-4" transform="translate(22.000000, 48.000000)">
                    <g id="nan" transform="translate(185.000000, 16.000000)">
                        <circle id="椭圆形" fill="#75C4EF" cx="10" cy="10" r="10"></circle>
                        <g id="男" transform="translate(10.500000, 10.000000) rotate(45.000000) translate(-10.500000, -10.000000) translate(6.000000, 3.000000)" fill="#FFFFFF" fill-rule="nonzero">
                            <path d="M4.5,14 C2.01659751,14 8.8817842e-16,11.979668 8.8817842e-16,9.5 C8.8817842e-16,7.02033195 2.01659751,5 4.5,5 C6.98340249,5 9,7.01659751 9,9.5 C9,11.9834025 6.97966805,14 4.5,14 Z M4.5,6 C2.5715757,6 1,7.5715757 1,9.5 C1,11.4284243 2.5715757,13 4.5,13 C6.4284243,13 8,11.4284243 8,9.5 C8,7.5715757 6.4284243,6 4.5,6 Z" id="形状"></path>
                            <path d="M4.5,6 C4.22222222,6 4,5.78947368 4,5.52631579 L4,0.473684211 C4,0.210526316 4.22222222,2.87014856e-12 4.5,2.87014856e-12 C4.77777778,2.87014856e-12 5,0.210526316 5,0.473684211 L5,5.52631579 C5,5.78947368 4.77777778,6 4.5,6 L4.5,6 Z" id="路径"></path>
                            <path d="M6.62792907,2.99834346 C6.53293224,2.99834346 6.4379354,2.9618995 6.3651045,2.88569851 L4.5,0.934290447 L2.6348955,2.88569851 C2.48923369,3.0381005 2.25490817,3.0381005 2.10924636,2.88569851 C1.96358455,2.73329652 1.96358455,2.48812811 2.10924636,2.33572612 L4.23717543,0.109331861 C4.37650412,-0.0364439536 4.62349588,-0.0364439536 4.76282457,0.109331861 L6.89075364,2.33572612 C7.03641545,2.48812811 7.03641545,2.73329652 6.89075364,2.88569851 C6.81792274,2.9618995 6.7229259,2.99834346 6.62792907,2.99834346 L6.62792907,2.99834346 Z" id="路径"></path>
                        </g>
                    </g>
                </g>
            </g>
        </g>
    </g>
</svg>