<?xml version="1.0" encoding="UTF-8"?>
<svg width="20px" height="20px" viewBox="0 0 20 20" version="1.1" xmlns="http://www.w3.org/2000/svg" xmlns:xlink="http://www.w3.org/1999/xlink">
    <title>nv</title>
    <g id="pc版" stroke="none" stroke-width="1" fill="none" fill-rule="evenodd">
        <g id="4JS-更换背景" transform="translate(-567.000000, -135.000000)">
            <g id="个人简介栏" transform="translate(360.000000, 71.000000)">
                <g id="编组-4" transform="translate(22.000000, 48.000000)">
                    <g id="nv" transform="translate(185.000000, 16.000000)">
                        <circle id="椭圆形" fill="#F9716E" cx="10" cy="10" r="10"></circle>
                        <g id="女" transform="translate(9.588388, 10.036612) rotate(45.000000) translate(-9.588388, -10.036612) translate(5.088388, 3.036612)" fill="#FFFFFF" fill-rule="nonzero">
                            <path d="M4.46181818,8.92363636 C2.00363636,8.92363636 -6.45947942e-15,6.92363636 -6.45947942e-15,4.46181818 C-6.45947942e-15,2 2,0 4.46181818,0 C6.92363636,0 8.92363636,2 8.92363636,4.46181818 C8.92363636,6.92363636 6.92,8.92363636 4.46181818,8.92363636 L4.46181818,8.92363636 Z M4.46181818,0.869090909 C2.48,0.869090909 0.869090909,2.48 0.869090909,4.46181818 C0.869090909,6.44363636 2.48,8.05454545 4.46181818,8.05454545 C6.44363636,8.05454545 8.05454545,6.44363636 8.05454545,4.46181818 C8.05454545,2.48 6.44363636,0.869090909 4.46181818,0.869090909 Z M6.76,11.2727273 L2.21090909,11.2727273 C1.97090909,11.2727273 1.77818182,11.08 1.77818182,10.84 C1.77818182,10.6 1.97090909,10.4072727 2.21090909,10.4072727 L6.76,10.4072727 C7,10.4072727 7.19272727,10.6 7.19272727,10.84 C7.19272727,11.08 7,11.2727273 6.76,11.2727273 Z" id="形状"></path>
                            <path d="M4.48727273,13.5454545 C4.24727273,13.5454545 4.05454545,13.3527273 4.05454545,13.1127273 L4.05454545,8.56363636 C4.05454545,8.32363636 4.24727273,8.13090909 4.48727273,8.13090909 C4.72727273,8.13090909 4.92,8.32363636 4.92,8.56363636 L4.92,13.1127273 C4.92,13.3527273 4.72727273,13.5454545 4.48727273,13.5454545 L4.48727273,13.5454545 Z" id="路径"></path>
                        </g>
                    </g>
                </g>
            </g>
        </g>
    </g>
</svg>