<?xml version="1.0" encoding="UTF-8"?>
<svg width="10px" height="5px" viewBox="0 0 10 5" version="1.1" xmlns="http://www.w3.org/2000/svg" xmlns:xlink="http://www.w3.org/1999/xlink">
    <title>shouqarrow</title>
    <g id="pc版" stroke="none" stroke-width="1" fill="none" fill-rule="evenodd">
        <g id="3JS-热门排行展开" transform="translate(-1411.000000, -1154.000000)" fill="#555666">
            <g id="left1" transform="translate(1236.000000, 348.000000)">
                <g id="收起" transform="translate(140.000000, 798.000000)">
                    <path d="M37.3095725,14.4600923 C37.1468489,14.6264057 37.1468489,14.8963567 37.3095725,15.0626836 C37.4721901,15.2291055 37.7361421,15.2291055 37.898773,15.0626836 L42.0654275,10.8013058 C42.2281908,10.6349924 42.2281908,10.3650415 42.0654275,10.1987145 L37.8987597,5.93735027 C37.8174244,5.85412579 37.7107886,5.8125 37.6041661,5.8125 C37.4975436,5.8125 37.3908946,5.85412579 37.3095725,5.93735027 C37.1468092,6.10366368 37.1468092,6.3736146 37.3095725,6.53994156 L41.1816069,10.5000305 L37.3095725,14.4600923 Z" id="shouqarrow" transform="translate(39.687500, 10.500000) scale(1, -1) rotate(90.000000) translate(-39.687500, -10.500000) "></path>
                </g>
            </g>
        </g>
    </g>
</svg>