<?xml version="1.0" encoding="UTF-8"?>
<svg width="16px" height="16px" viewBox="0 0 16 16" version="1.1" xmlns="http://www.w3.org/2000/svg" xmlns:xlink="http://www.w3.org/1999/xlink">
    <title>wenzi</title>
    <g id="pc版" stroke="none" stroke-width="1" fill="none" fill-rule="evenodd">
        <g id="4JS-更换背景" transform="translate(-384.000000, -283.000000)">
            <g id="tab" transform="translate(360.000000, 251.000000)">
                <g id="wenzi" transform="translate(24.000000, 32.000000)">
                    <rect id="矩形" x="0" y="0" width="16" height="16"></rect>
                    <path d="M11.8352517,5.07665344 C10.7941306,5.07665344 9.94743979,4.22996264 9.94743979,3.18923041 L9.94743979,1.01557442 L3.16026851,1.01557442 C2.52567174,1.01557442 2.01131778,1.53031732 2.01131778,2.16454137 L2.01131778,13.0887865 C2.01131778,13.7230105 2.52567175,14.2369594 3.16026851,14.2369594 L12.8122002,14.2369594 C13.4464891,14.2369594 13.9607944,13.7230105 13.9607944,13.0887865 L13.9607944,5.07665344 L11.8352517,5.07665344 Z M12.0653498,10.6792232 L3.90634105,10.6792232 L3.90634105,9.90950725 L12.0653498,9.90950725 L12.0653498,10.6792232 Z M12.0653498,8.21612564 L3.90634105,8.21612564 L3.90634105,7.44640967 L12.0653498,7.44640967 L12.0653498,8.21612564 Z" id="形状" fill="#111111" fill-rule="nonzero"></path>
                    <path d="M10.6862848,1.01557442 L10.6862848,3.18923041 C10.6862848,3.82345447 11.2006388,4.3374033 11.8352517,4.3374033 L13.9607944,4.3374033 L10.6862848,1.01557442 Z" id="路径" fill="#111111" fill-rule="nonzero"></path>
                </g>
            </g>
        </g>
    </g>
</svg>