<?xml version="1.0" encoding="UTF-8"?>
<svg width="16px" height="16px" viewBox="0 0 16 16" version="1.1" xmlns="http://www.w3.org/2000/svg" xmlns:xlink="http://www.w3.org/1999/xlink">
    <title>ziyuan</title>
    <g id="pc版" stroke="none" stroke-width="1" fill="none" fill-rule="evenodd">
        <g id="4JS-更换背景" transform="translate(-726.000000, -283.000000)">
            <g id="tab" transform="translate(360.000000, 251.000000)">
                <g id="ziyuan" transform="translate(366.000000, 32.000000)">
                    <rect id="矩形" x="0" y="0" width="16" height="16"></rect>
                    <path d="M13.3793244,2.2413399 L9.75863475,2.2413399 C9.49522528,1.49630206 8.79024458,0.998668619 8.00001406,0.999955582 C7.21173428,1.004791 6.50991848,1.50019038 6.24139337,2.2413399 L2.62070372,2.2413399 C2.27790629,2.2413399 2.00001406,2.51923212 2.00001406,2.86202955 L2.00001406,14.6206502 C2.00001406,14.9634477 2.27790629,15.2413399 2.62070372,15.2413399 L13.3793244,15.2413399 C13.7221218,15.2413399 14.0000141,14.9634477 14.0000141,14.6206502 L14.0000141,2.86202955 C14.0000141,2.51923212 13.7221218,2.2413399 13.3793244,2.2413399 Z M8.00001406,2.2413399 C8.34281149,2.2413399 8.62070372,2.51923212 8.62070372,2.86202955 C8.62070372,3.20482698 8.3428115,3.48271921 8.00001406,3.48271921 C7.65721663,3.48271921 7.3793244,3.20482698 7.3793244,2.86202955 C7.3793244,2.51923212 7.65721663,2.2413399 8.00001406,2.2413399 Z M5.31035889,11.5516847 C4.96759644,11.5516352 4.68975881,11.2737575 4.68975881,10.9309951 C4.68975881,10.5882326 4.96759644,10.3103549 5.31035889,10.3103054 L9.03449683,10.3103054 C9.37725927,10.3103549 9.6550969,10.5882326 9.6550969,10.9309951 C9.6550969,11.2737575 9.37725927,11.5516352 9.03449683,11.5516847 L5.31035889,11.5516847 Z M5.31035889,9.06892609 C4.96759644,9.06887662 4.68975881,8.79099889 4.68975881,8.44823644 C4.68975881,8.10547399 4.96759644,7.82759626 5.31035889,7.82754679 L10.6896692,7.82754679 C11.0324317,7.82759626 11.3102693,8.10547399 11.3102693,8.44823644 C11.3102693,8.79099889 11.0324317,9.06887662 10.6896692,9.06892609 L5.31035889,9.06892609 Z M5.31035889,6.58616748 C4.96759644,6.586118 4.68975881,6.30824027 4.68975881,5.96547782 C4.68975881,5.62271537 4.96759644,5.34483764 5.31035889,5.34478817 L10.6896692,5.34478817 C11.0324317,5.34483764 11.3102693,5.62271537 11.3102693,5.96547782 C11.3102693,6.30824027 11.0324317,6.586118 10.6896692,6.58616748 L5.31035889,6.58616748 Z" id="形状" fill="#111111" fill-rule="nonzero"></path>
                </g>
            </g>
        </g>
    </g>
</svg>