<?xml version="1.0" encoding="UTF-8"?>
<svg width="18px" height="18px" viewBox="0 0 18 18" version="1.1" xmlns="http://www.w3.org/2000/svg" xmlns:xlink="http://www.w3.org/1999/xlink">
    <title>bi</title>
    <g id="pc版" stroke="none" stroke-width="1" fill="none" fill-rule="evenodd">
        <g id="4JS-更换背景" transform="translate(-1489.000000, -18.000000)">
            <g id="bi" transform="translate(1489.000000, 18.000000)">
                <rect id="矩形" x="0" y="0" width="18" height="18"></rect>
                <path d="M9.6206255,2.49394069 C10.2716543,1.8353531 11.3782124,1.8353531 12.0291855,2.49394069 L12.0291855,2.49394069 L15.4792578,5.98458926 C15.8047791,6.31395305 16,6.7090664 16,7.1701393 C16,7.63112821 15.8047513,8.02629756 15.4792438,8.35563335 L15.4792438,8.35563335 L8.83946339,15.0077207 C8.64424252,15.2710969 8.38376692,15.4028201 8.05825948,15.4687236 C4.23934378,15.951671 2.24306536,16.1053573 2.06942425,15.9297825 C1.89584815,15.754105 2.04775626,13.7562718 2.52514859,9.93628274 C2.59020828,9.60701695 2.72046698,9.34358471 2.9807754,9.14602804 L2.9807754,9.14602804 Z M9.35355339,4.64644661 L8.64644661,5.35355339 L12.6464466,9.35355339 L13.3535534,8.64644661 L9.35355339,4.64644661 Z" id="形状结合" fill="#FFFFFF" fill-rule="nonzero"></path>
                <rect id="矩形" fill="#FFFFFF" x="3" y="15" width="13" height="1" rx="0.5"></rect>
            </g>
        </g>
    </g>
</svg>