<?xml version="1.0" encoding="UTF-8"?>
<svg width="15px" height="16px" viewBox="0 0 15 16" version="1.1" xmlns="http://www.w3.org/2000/svg" xmlns:xlink="http://www.w3.org/1999/xlink">
    <title>pingl</title>
    <g id="pc版" stroke="none" stroke-width="1" fill="none" fill-rule="evenodd">
        <g id="4JS-更换背景" transform="translate(-1030.000000, -754.000000)">
            <g id="cont" transform="translate(360.000000, 348.000000)">
                <g id="list1" transform="translate(24.000000, 203.000000)">
                    <g id="分组-7" transform="translate(0.000000, 202.000000)">
                        <g id="编组-5" transform="translate(524.000000, 0.000000)">
                            <g id="pingl" transform="translate(121.000000, 1.000000)">
                                <rect id="矩形" x="1" y="0" width="15" height="16"></rect>
                                <g id="分组-6" transform="translate(1.000000, 0.000000)">
                                    <path d="M7.93363499,15.7576918 L9.01960784,14.0735364 C10.7616893,13.7317028 12.1945701,12.9062999 13.3182504,11.6056651 C14.4419306,10.3050302 15,8.80429763 15,7.11180481 C15,5.15251509 14.2684766,3.47669708 12.7978884,2.08435077 C11.3273002,0.692004454 9.56259427,0 7.49622926,0 C5.42986425,0 3.66515837,0.692004454 2.19457014,2.08435077 C0.731523379,3.46835967 0,5.14417769 0,7.11180481 C0,8.80429763 0.56561086,10.3050302 1.68174962,11.6056651 C2.80542986,12.9062999 4.23831071,13.7317028 5.98039216,14.0818738 L7.06636501,15.7660292 C7.09653092,15.8160536 7.14177979,15.8577406 7.18702866,15.8910902 C7.23227753,15.9327772 7.28506787,15.9577895 7.33785822,15.9744643 C7.39819005,15.9911391 7.45098039,15.9994765 7.50377074,15.9994765 C7.67722474,16.0078139 7.83559578,15.9161024 7.93363499,15.7576918 L7.93363499,15.7576918 Z" id="路径" fill="#C9C9C9"></path>
                                    <path d="M4.99867862,7.46666667 C4.99867862,7.17370892 4.90720407,6.9258216 4.71018196,6.71549296 C4.52019636,6.50516432 4.28095523,6.4 4.00653157,6.4 C3.73210792,6.4 3.49286679,6.50516432 3.29584468,6.71549296 C3.10585908,6.91079812 2.99327501,7.18122066 3.00031152,7.46666667 C3.00031152,7.75962441 3.09882257,8.00751174 3.29584468,8.21784038 C3.49286679,8.42816901 3.73210792,8.53333333 4.00653157,8.53333333 C4.28095523,8.53333333 4.51315985,8.42816901 4.71018196,8.21784038 C4.90720407,8.00751174 4.99867862,7.75962441 4.99867862,7.46666667 Z M11.7115033,8.21784038 C11.9014889,8.00751174 12,7.75962441 12,7.46666667 C12,7.35399061 11.985927,7.24131455 11.9507445,7.13615023 C11.9225985,7.03098592 11.8733429,6.9258216 11.8100144,6.83568075 C11.7466859,6.74553991 11.6763208,6.67042254 11.5918828,6.6028169 C11.5074447,6.53521127 11.4089337,6.48262911 11.3104226,6.45258216 C11.2119116,6.42253521 11.106364,6.4 11.0008164,6.4 C10.7263928,6.4 10.4941882,6.50516432 10.2971661,6.71549296 C10.1071805,6.91079812 9.99459639,7.18122066 10.0016329,7.46666667 C10.0016329,7.54929577 10.0086694,7.62441315 10.0227424,7.70704225 C10.0368154,7.78967136 10.0649614,7.86478873 10.1001439,7.93239437 C10.1353265,8 10.1775455,8.06760563 10.2197645,8.13521127 C10.2619835,8.2028169 10.3112391,8.2629108 10.3745676,8.30046948 C10.4378961,8.34553991 10.5012247,8.39061033 10.5645532,8.42816901 C10.6278817,8.4657277 10.6982468,8.49577465 10.7756483,8.51079812 C10.8530499,8.5258216 10.9304514,8.53333333 11.0008164,8.53333333 C11.2822766,8.53333333 11.5215177,8.42816901 11.7115033,8.21784038 L11.7115033,8.21784038 Z M8.50285756,7.46666667 C8.50285756,7.35399061 8.48878456,7.24131455 8.45360204,7.13615023 C8.42545602,7.03098592 8.37620049,6.9258216 8.31287196,6.83568075 C8.24954342,6.74553991 8.17917838,6.67042254 8.09474034,6.6028169 C8.01030229,6.53521127 7.91179124,6.48262911 7.81328018,6.45258216 C7.71476913,6.42253521 7.60922157,6.4 7.50367401,6.4 C7.22925036,6.4 6.99704573,6.50516432 6.80002362,6.71549296 C6.61003802,6.91079812 6.50449046,7.18122066 6.50449046,7.46666667 C6.50449046,7.75962441 6.60300151,8.00751174 6.80002362,8.21784038 C6.99704573,8.42816901 7.23628686,8.53333333 7.51071051,8.53333333 C7.78513417,8.53333333 8.01733879,8.42816901 8.2143609,8.21784038 C8.40434651,8.02253521 8.50285756,7.74460094 8.50285756,7.46666667 L8.50285756,7.46666667 Z" id="形状" fill="#FFFFFF" fill-rule="nonzero"></path>
                                </g>
                            </g>
                        </g>
                    </g>
                </g>
            </g>
        </g>
    </g>
</svg>