<?xml version="1.0" encoding="UTF-8"?>
<svg width="16px" height="16px" viewBox="0 0 16 16" version="1.1" xmlns="http://www.w3.org/2000/svg" xmlns:xlink="http://www.w3.org/1999/xlink">
    <title>shipin</title>
    <g id="pc版" stroke="none" stroke-width="1" fill="none" fill-rule="evenodd">
        <g id="4JS-更换背景" transform="translate(-612.000000, -283.000000)">
            <g id="tab" transform="translate(360.000000, 251.000000)">
                <g id="shipin" transform="translate(252.000000, 32.000000)">
                    <rect id="矩形" x="0" y="0" width="16" height="16"></rect>
                    <path d="M6.00631711,1.29489842 C9.33594194,0.302893758 12.8890308,1.90513568 14.3498444,5.05735686 C15.810658,8.20957805 14.7363819,11.95625 11.8271796,13.8554648 L11.8271796,13.8554648 L13.7714899,13.8554648 C13.9763182,13.8530142 14.1666462,13.9608794 14.2697826,14.1378639 C14.3729191,14.3148484 14.3729345,14.5336169 14.2698231,14.7106159 C14.1667118,14.887615 13.976399,14.9955071 13.7715704,14.9931254 L13.7715704,14.9931254 L8.00880029,14.9931254 C4.5345424,14.9957132 1.58492935,12.4478901 1.08238275,9.01016973 C0.579836156,5.57244931 2.67669228,2.28690309 6.00631711,1.29489842 Z M7.40535201,5.6634533 C7.15929544,5.52148828 6.85619462,5.52156715 6.61021197,5.66366022 C6.36422932,5.80575329 6.2127305,6.0682761 6.21277704,6.35234986 L6.21277704,6.35234986 L6.21277704,9.74855675 C6.21260633,9.95948366 6.29632102,10.1618207 6.44546892,10.3109686 C6.59461681,10.4601165 6.79695384,10.5438312 7.00788075,10.5436605 C7.14742273,10.5436605 7.28450221,10.5068975 7.40535201,10.4371315 L7.40535201,10.4371315 L10.3456739,8.73910848 C10.5916125,8.59693275 10.7430827,8.33440964 10.7430827,8.05033261 C10.7430827,7.76625559 10.5916125,7.50373248 10.3456739,7.36155675 L10.3456739,7.36155675 Z M7.34693822,6.93994756 L9.26992672,8.0508556 L7.34693822,9.16120043 L7.34693822,6.93994756 Z" id="形状结合" fill="#111111" fill-rule="nonzero"></path>
                </g>
            </g>
        </g>
    </g>
</svg>