<?xml version="1.0" encoding="UTF-8"?>
<svg width="16px" height="16px" viewBox="0 0 16 16" version="1.1" xmlns="http://www.w3.org/2000/svg" xmlns:xlink="http://www.w3.org/1999/xlink">
    <title>tupian</title>
    <g id="pc版" stroke="none" stroke-width="1" fill="none" fill-rule="evenodd">
        <g id="4JS-更换背景" transform="translate(-498.000000, -283.000000)">
            <g id="tab" transform="translate(360.000000, 251.000000)">
                <g id="tupian" transform="translate(138.000000, 32.000000)">
                    <rect id="矩形" x="0" y="0" width="16" height="16"></rect>
                    <path d="M14.7272859,13.3113981 C14.9360793,13.4420184 14.9994511,13.7171675 14.8688308,13.9259609 C14.7382105,14.1347543 14.4630613,14.1981261 14.2542679,14.0675058 C13.4116753,13.5405563 12.2784228,13.4843834 10.6431568,13.7853094 L10.326636,13.8463879 L9.98914448,13.9168234 C9.86032724,13.9449207 9.73163828,13.973603 9.6030816,14.0028694 L8.51974826,14.2507415 L8.11583357,14.3399064 C7.509076,14.4700726 7.20592448,14.5146629 6.79577185,14.5458526 C5.32145423,14.6591073 3.83688633,14.5338313 2.34429374,14.1713879 C2.18947865,14.1337985 2.06647735,14.0164715 2.02162325,13.8636029 C1.97676914,13.7107344 2.01687663,13.5455487 2.12683761,13.4302696 C2.23679859,13.3149906 2.39990737,13.2671318 2.55472246,13.3047213 C3.9572567,13.6453161 5.34775391,13.7625675 6.72756197,13.6568986 L6.94778646,13.6373071 L7.09045983,13.6203487 C7.35392675,13.5864632 7.64416353,13.5311837 8.11762032,13.4268627 L9.67930049,13.0720052 L10.0181243,12.9993285 C10.1723074,12.9671519 10.3268723,12.9368324 10.4817853,12.9083767 C12.3167595,12.570462 13.6479649,12.6364463 14.726847,13.3113981 L14.7272859,13.3113981 Z M6.56438802,2.23509838 C8.00660687,2.23509838 9.11178868,3.37015336 9.87947893,5.90148896 L9.88394579,5.90059558 L9.95080777,6.14312307 C10.007513,6.34166797 10.060425,6.5412767 10.1095149,6.74184028 L10.228553,7.23581332 L10.296324,7.52648896 L10.3408987,7.42262249 C10.7532769,6.49084925 11.2945047,6.02453945 11.9645665,6.02453945 C13.3497191,6.02453945 14.3198134,8.01599513 14.8748493,11.9984676 C14.9216652,12.3359592 14.6510513,12.4487594 14.453553,12.3292667 C12.3154116,11.0346113 8.93435209,12.597655 6.76188633,12.7639323 C5.61167535,12.8522039 4.45478757,12.7906865 3.29166184,12.5793644 L3.00053168,12.5231916 C2.93245025,12.5091182 2.86453364,12.494259 2.79679543,12.4786169 L2.57077185,12.4260176 C2.35560803,12.37489 2.2104515,12.1737522 2.22972246,11.9534385 L2.26182123,11.5878762 L2.30639588,11.1376001 C2.93098958,5.06424093 4.35046658,2.23509838 6.56438802,2.23509838 Z M11.9141927,2.01219377 C12.6528423,2.01219377 13.251636,2.61098755 13.251636,3.3496371 C13.251636,4.08828666 12.6528423,4.68708044 11.9141927,4.68708044 C11.1755432,4.68708044 10.5767494,4.08828666 10.5767494,3.3496371 C10.5767494,2.61098755 11.1755432,2.01219377 11.9141927,2.01219377 Z" id="形状" fill="#111111" fill-rule="nonzero"></path>
                </g>
            </g>
        </g>
    </g>
</svg>