<?xml version="1.0" encoding="UTF-8"?>
<svg width="14px" height="14px" viewBox="0 0 14 14" version="1.1" xmlns="http://www.w3.org/2000/svg" xmlns:xlink="http://www.w3.org/1999/xlink">
    <title>yuedu</title>
    <g id="pc版" stroke="none" stroke-width="1" fill="none" fill-rule="evenodd">
        <g id="4JS-更换背景" transform="translate(-909.000000, -755.000000)">
            <g id="cont" transform="translate(360.000000, 348.000000)">
                <g id="list1" transform="translate(24.000000, 203.000000)">
                    <g id="分组-7" transform="translate(0.000000, 202.000000)">
                        <g id="编组-5" transform="translate(524.000000, 0.000000)">
                            <g id="yuedu" transform="translate(0.000000, 1.000000)">
                                <rect id="矩形" x="0" y="0" width="16" height="16"></rect>
                                <g id="书" transform="translate(8.000000, 8.000000) scale(-1, 1) translate(-8.000000, -8.000000) translate(1.000000, 1.000000)" fill="#C9C9C9" fill-rule="nonzero">
                                    <path d="M3.76923077,8.8817842e-16 L1.61538461,8.8817842e-16 C0.721538467,8.8817842e-16 0,0.721538467 0,1.61538461 L0,10.2307692 C0,11.1246154 0.721538467,11.8461538 1.61538461,11.8461538 L3.76923077,11.8461538 C4.66307693,11.8461538 5.38461539,12.5676923 5.38461539,13.4615385 C5.38461539,13.7630769 5.62153847,14 5.92307692,14 C6.22461537,14 6.46153847,13.7630769 6.46153847,13.4615385 L6.46153847,2.69230769 C6.46153847,1.9782633 6.17788543,1.2934643 5.6729798,0.788558666 C5.16807417,0.283653032 4.48327517,8.8817842e-16 3.76923077,8.8817842e-16 Z M12.3846154,0 L10.2307692,0 C8.74384875,0 7.53846153,1.20538721 7.53846153,2.69230769 L7.53846153,13.4615385 C7.53846153,13.7630769 7.77538461,14 8.07692308,14 C8.37846155,14 8.61538461,13.7630769 8.61538461,13.4615385 C8.61538461,12.5676923 9.33692308,11.8461539 10.2307692,11.8461538 L12.3846154,11.8461538 C13.2784615,11.8461538 14,11.1246154 14,10.2307692 L14,1.61538461 C14,0.721538453 13.2784615,0 12.3846154,0 L12.3846154,0 Z" id="形状"></path>
                                </g>
                            </g>
                        </g>
                    </g>
                </g>
            </g>
        </g>
    </g>
</svg>